<svg width="22" height="22" fill="none" xmlns="http://www.w3.org/2000/svg"><path d="M10.193 2.789a9.043 9.043 0 0 0-4.577 1.73c-.494.364-.724.598-.775.793-.137.515.325.987.833.85.087-.023.262-.135.435-.28 1.102-.92 2.553-1.531 4.047-1.704.553-.064 1.634-.025 2.109.075 1.393.295 2.717 1.031 3.947 2.195.325.308.985 1.032.985 1.081 0 .011-.664.025-1.476.032-1.598.012-1.582.01-1.777.219-.333.356-.204.918.254 1.11.118.049.43.057 2.31.056 2.035-.001 2.183-.005 2.32-.069a.673.673 0 0 0 .365-.379c.049-.117.057-.432.057-2.325 0-2.157-.001-2.192-.078-2.351-.211-.435-.823-.501-1.142-.121-.146.173-.173.401-.173 1.459v.977l-.56-.55c-.92-.905-1.667-1.452-2.667-1.952-1.405-.703-2.848-.978-4.437-.846M3.355 13.071c-.02.007-.081.022-.135.034-.142.031-.324.198-.401.368-.063.139-.067.293-.068 2.346-.001 2.166 0 2.2.077 2.359.118.245.314.357.622.357.22 0 .262-.012.387-.112.278-.222.287-.264.3-1.478l.011-1.077.557.548c.306.301.713.672.905.826 1.181.943 2.531 1.592 3.868 1.858 2.014.4 4.298-.016 6.162-1.123.854-.506 1.445-1.008 1.519-1.289a.668.668 0 0 0-.652-.86c-.25 0-.315.032-.647.317-.703.605-1.728 1.137-2.76 1.434-2.649.76-5.143.055-7.374-2.086-.299-.286-.923-.978-.923-1.024 0-.012.648-.023 1.439-.023 1.321-.001 1.452-.007 1.586-.069a.673.673 0 0 0 .365-.379c.134-.319-.006-.688-.328-.866-.098-.054-.339-.061-2.292-.067a97.156 97.156 0 0 0-2.218.006" fill="currentColor" fill-rule="evenodd"/></svg>