<svg width="22" height="22" fill="currentColor" xmlns="http://www.w3.org/2000/svg"><path d="M10.652 3.386a2.358 2.358 0 0 0-.275.113c-.071.036-1.634 1.569-3.473 3.407C3.119 10.689 3.355 10.417 3.355 11c0 .377.099.624.352.877.252.252.5.351.876.351.569 0 .445.101 2.961-2.411l2.209-2.206.009 5.059.01 5.058.095.202c.121.257.362.499.62.62.167.079.254.095.513.095s.346-.016.513-.095c.258-.121.499-.363.62-.62l.095-.202.01-5.058.009-5.059 2.209 2.206c2.516 2.512 2.392 2.411 2.961 2.411.376 0 .624-.099.876-.351.253-.253.352-.5.352-.877 0-.583.236-.311-3.549-4.096-3.017-3.017-3.366-3.354-3.562-3.443-.258-.118-.653-.151-.882-.075" fill-rule="evenodd"/></svg>