<svg width="17" height="18" fill="none" xmlns="http://www.w3.org/2000/svg"><path d="M.786.029C.342.141.019.539.019.976c0 .245.039.391.15.556.046.069 1.52 1.764 3.275 3.766a494.88 494.88 0 0 1 3.205 3.675c.008.018-1.421 1.672-3.175 3.674a626.113 626.113 0 0 0-3.286 3.77c-.282.368-.233.936.109 1.278.365.365.968.391 1.338.058.076-.069 1.54-1.727 3.253-3.684l3.114-3.559.061.065c.033.035 1.409 1.607 3.058 3.492a679.842 679.842 0 0 0 3.128 3.566 1 1 0 0 0 .5.318.988.988 0 0 0 1.152-.52c.084-.171.093-.213.093-.445 0-.221-.01-.276-.077-.411-.055-.111-1.012-1.223-3.324-3.864-1.785-2.039-3.242-3.718-3.237-3.731a616.67 616.67 0 0 1 3.21-3.682 388.33 388.33 0 0 0 3.28-3.774c.155-.231.192-.586.09-.87a1.203 1.203 0 0 0-.449-.525c-.374-.215-.876-.14-1.197.18-.075.075-1.515 1.713-3.198 3.638C9.409 5.872 8.02 7.448 8.004 7.448c-.015 0-1.437-1.612-3.159-3.583C3.123 1.895 1.663.246 1.601.201a1.424 1.424 0 0 0-.224-.127A1.274 1.274 0 0 0 .786.029" fill-rule="evenodd" fill="currentColor"/></svg>