<svg width="26" height="26" fill="none" xmlns="http://www.w3.org/2000/svg"><path d="M11.919.046C7.511.438 3.676 2.949 1.562 6.828.855 8.125.375 9.586.118 11.223c-.134.85-.134 2.704 0 3.554.138.883.298 1.55.553 2.318a12.778 12.778 0 0 0 3.142 5.092c2.01 2.01 4.468 3.236 7.41 3.695.799.125 2.658.134 3.445.017 1.592-.237 3.03-.69 4.304-1.356 3.86-2.016 6.408-5.709 6.95-10.07.075-.603.073-2.359-.002-2.946-.415-3.21-1.825-5.962-4.156-8.11a12.6 12.6 0 0 0-3.022-2.055C17.35.678 16.099.299 14.587.106c-.645-.083-2.057-.114-2.668-.06m2.641 2.078a11.04 11.04 0 0 1 5.09 2.119c.553.416 1.448 1.285 1.9 1.845 1.71 2.12 2.603 4.912 2.419 7.563-.161 2.316-.918 4.31-2.337 6.152-.388.504-1.457 1.559-1.962 1.937-2.939 2.199-6.621 2.83-10.05 1.723-1.738-.561-3.199-1.475-4.507-2.82-1.638-1.685-2.631-3.708-2.996-6.105-.131-.857-.131-2.219 0-3.076.193-1.27.501-2.252 1.05-3.355.595-1.193 1.226-2.057 2.19-2.994 1.85-1.799 4.195-2.858 6.82-3.079.596-.05 1.708-.008 2.383.09m-7.545 9.462c-.689.247-1.129.987-.99 1.663.135.652.584 1.096 1.241 1.225.457.09.948-.077 1.301-.441.724-.749.505-1.927-.442-2.382-.221-.106-.312-.124-.607-.122a2.07 2.07 0 0 0-.503.057m5.552-.021c-.721.236-1.2 1.022-1.039 1.704.077.327.223.592.439.799.764.73 1.96.49 2.404-.483.243-.532.122-1.181-.301-1.618-.295-.305-.546-.411-1.005-.425-.214-.007-.439.003-.498.023m5.503 0c-.619.202-1.055.785-1.06 1.413a1.484 1.484 0 0 0 2.512 1.1c.626-.577.63-1.576.008-2.149-.32-.295-.514-.373-.962-.387-.214-.007-.438.003-.498.023" fill="currentColor" fill-rule="evenodd"/></svg>