<svg width="24" height="24" fill="none" xmlns="http://www.w3.org/2000/svg"><path d="M10.82 2.061c-1.973.216-3.953.989-5.74 2.242C3.364 5.505 1.665 7.277.31 9.278L0 9.736V14.267l.373.54c1.818 2.629 3.877 4.562 6.157 5.778 4.414 2.355 9.317 1.744 13.41-1.671 1.352-1.128 2.556-2.47 3.684-4.105l.376-.545v-4.53l-.321-.47c-3.217-4.712-7.381-7.287-11.739-7.259-.352.002-.856.028-1.12.056m1.894 3.98c.927.097 1.727.334 2.626.777 1.07.527 1.901 1.143 2.941 2.182.871.869 1.508 1.64 2.139 2.59l.272.41-.272.41A15.933 15.933 0 0 1 18.281 15c-1.034 1.033-1.877 1.658-2.941 2.182-.968.477-1.75.697-2.79.787-1.931.166-3.841-.484-5.706-1.943-1.077-.842-2.283-2.17-3.194-3.516L3.305 12l.345-.51c1.445-2.135 3.22-3.791 5.01-4.672 1.345-.662 2.693-.921 4.054-.777m-1.274.983c-.856.158-1.161.254-1.738.548-1.338.683-2.281 1.937-2.609 3.468-.053.246-.073.512-.073.96 0 .448.02.714.073.96.433 2.021 1.926 3.514 3.947 3.947.471.101 1.449.101 1.92 0 2.018-.432 3.515-1.929 3.947-3.947.053-.246.073-.512.073-.96 0-.67-.058-1.043-.248-1.6-.571-1.671-1.979-2.916-3.732-3.299-.29-.064-1.349-.116-1.56-.077m.87 4.037c.378.112.69.537.69.939 0 .517-.483 1-1 1-.236 0-.514-.121-.694-.3-.401-.402-.403-.997-.002-1.397.279-.279.612-.359 1.006-.242" fill-rule="evenodd" fill="currentColor"/></svg>