<svg width="24" height="24" fill="currentColor" xmlns="http://www.w3.org/2000/svg"><path d="M2.67 2.055a1.054 1.054 0 0 0-.539.456c-.095.162-.111.232-.11.489 0 .212.022.341.074.44.04.077.755.824 1.589 1.66l1.515 1.52-.25.2c-.386.309-1.488 1.428-1.93 1.96-.774.931-1.526 2.017-1.72 2.483-.105.251-.116.32-.116.737 0 .414.011.487.113.73.062.149.269.509.461.8 1.631 2.484 3.84 4.499 6.06 5.529 2.892 1.343 6.125 1.234 8.95-.301l.369-.2 1.642 1.637c.903.9 1.705 1.67 1.782 1.71.099.052.228.074.44.074.258.001.327-.015.492-.112.222-.13.409-.369.473-.603.054-.202.024-.53-.066-.709-.089-.179-18.19-18.291-18.411-18.422-.21-.126-.593-.162-.818-.078m8.248 2.003c-.48.062-.644.119-.847.297-.448.394-.42 1.15.056 1.516.278.214.388.23 1.169.173.936-.069 1.62-.019 2.479.181 2.456.572 4.905 2.502 6.806 5.366l.273.412-.385.568a20.4 20.4 0 0 1-.752 1.029c-.43.54-.489.659-.489.98 0 .572.42.99.997.99.308 0 .582-.138.806-.405.652-.779 1.49-1.996 1.67-2.426.107-.254.118-.32.118-.739 0-.415-.011-.486-.114-.73-.201-.478-1.023-1.666-1.779-2.57a21.418 21.418 0 0 0-.983-1.042c-2.032-2.03-4.143-3.182-6.523-3.559-.552-.088-1.957-.11-2.502-.041m-2.42 6.011c-.033.05-.123.247-.199.437a3.983 3.983 0 0 0 2.217 5.199 3.941 3.941 0 0 0 2.241.216c.366-.075.999-.299 1.187-.42.078-.051.133-.005.898.761.448.448.806.822.796.831-.074.063-.831.375-1.221.503-2.119.693-4.33.462-6.344-.664-.93-.52-1.712-1.126-2.616-2.03a14.404 14.404 0 0 1-1.923-2.324l-.389-.579.386-.571c.759-1.122 1.817-2.325 2.688-3.055l.398-.335.971.97c.945.945.968.972.91 1.061m2.792 2.641c.654.654 1.19 1.202 1.19 1.217 0 .057-.537.082-.814.037a2.008 2.008 0 0 1-1.63-1.63c-.045-.275-.02-.814.037-.814.015 0 .562.535 1.217 1.19" fill-rule="evenodd" fill="currentColor"/></svg>