<svg width="24" height="24" fill="none" xmlns="http://www.w3.org/2000/svg"><path d="M11.16 2.06a5.856 5.856 0 0 0-1.952.64c-.558.291-.977.6-1.442 1.066a5.89 5.89 0 0 0-1.584 2.793C6.029 7.175 6 7.541 6 8.881v1.268l-.25.07c-.939.259-1.843 1.027-2.304 1.959-.174.35-.291.751-.374 1.27-.074.472-.074 4.632 0 5.104.151.954.438 1.573 1.017 2.191.621.664 1.335 1.023 2.359 1.185.485.076 10.619.076 11.104 0 1.024-.162 1.738-.521 2.359-1.185.579-.618.866-1.237 1.017-2.191.074-.472.074-4.632 0-5.104-.123-.775-.346-1.342-.73-1.855a4.598 4.598 0 0 0-.898-.873 4.357 4.357 0 0 0-1.05-.501l-.25-.07V8.881c0-1.34-.029-1.706-.182-2.322a6.265 6.265 0 0 0-.963-2.083 7.356 7.356 0 0 0-1.331-1.331 7.43 7.43 0 0 0-1.423-.764c-.906-.339-2.013-.46-2.941-.321m1.445 1.998a4.008 4.008 0 0 1 3.18 2.674c.17.496.215.944.215 2.158V10H8V8.89c.001-1.548.071-1.961.464-2.73a4.013 4.013 0 0 1 2.894-2.099 3.728 3.728 0 0 1 1.247-.003m4.887 8.033c.401.097.617.218.908.509.531.53.561.68.588 2.92.023 1.837-.016 2.77-.131 3.156-.158.534-.652 1.027-1.182 1.181-.413.12-1.237.141-5.675.141-4.428 0-5.263-.021-5.671-.139a1.832 1.832 0 0 1-1.186-1.181c-.115-.388-.154-1.318-.131-3.158.023-1.858.044-2.082.236-2.469.123-.246.406-.555.655-.715.27-.173.591-.261 1.077-.297.22-.016 2.614-.026 5.32-.021 4.401.007 4.949.015 5.192.073" fill-rule="evenodd" fill="#000"/></svg>