<svg width="35" height="34" fill="none" xmlns="http://www.w3.org/2000/svg"><path d="M29.112 1.204c-.512.651-.965 4.111-1.231 9.413-.1 1.992-.137 8.431-.062 10.821.216 6.87.798 11.378 1.485 11.51.654.126 1.184-3.267 1.509-9.644.048-.938.074-3.184.074-6.3 0-4.799-.034-6.112-.235-9.012-.174-2.497-.388-4.313-.648-5.484-.295-1.328-.564-1.721-.892-1.304m-3.764 1.555c-.517.789-.942 4.254-1.14 9.287-.122 3.123-.062 9.42.118 12.367.242 3.947.681 6.661 1.122 6.935.522.325 1.01-2.121 1.295-6.498.176-2.692.222-4.919.189-9.099-.031-4-.059-4.819-.246-7.38-.213-2.91-.579-5.111-.933-5.615-.119-.169-.293-.167-.405.003M21.914 4.24c-.442.859-.782 3.615-.98 7.952-.139 3.028-.076 9.006.126 11.958.226 3.32.611 5.572.986 5.773.573.307 1.054-2.781 1.29-8.281.128-2.985.069-8.696-.121-11.638-.192-2.976-.544-5.313-.865-5.746-.156-.211-.333-.218-.436-.018m-3.041 1.261c-.339.518-.656 2.846-.859 6.312-.102 1.73-.102 8.652 0 10.383.203 3.465.52 5.794.859 6.312.294.448.604-.254.842-1.907.764-5.293.629-17.097-.234-20.448-.179-.699-.413-.949-.608-.652m-2.705 1.108c-.532.642-.895 4.872-.894 10.424.001 4.927.263 8.571.715 9.956.534 1.637 1.068-1.011 1.283-6.368.076-1.901.039-7.235-.061-8.75-.224-3.398-.533-5.257-.883-5.325-.051-.01-.123.019-.16.063m-2.573 1.218c-.23.524-.444 2.034-.597 4.219-.106 1.525-.106 8.391 0 9.916.275 3.927.731 5.453 1.146 3.834.747-2.918.798-13.579.082-17.192-.197-.992-.417-1.264-.631-.777m-2.19.826c-.193.295-.401 1.633-.559 3.597-.099 1.236-.138 6.635-.059 8.254.195 3.988.609 5.849 1.021 4.589.363-1.11.575-4.094.575-8.089 0-4.455-.268-7.675-.695-8.356-.105-.167-.171-.166-.283.005m-2.04.928c-.352.842-.566 3.652-.566 7.423 0 3.121.141 5.545.395 6.796.095.468.248.846.343.846.094 0 .252-.375.345-.818.259-1.234.401-3.644.401-6.824 0-2.57-.058-3.99-.225-5.569-.183-1.719-.45-2.435-.693-1.854m-1.771.668c-.528 1.009-.727 8.061-.332 11.756.141 1.314.337 2.01.522 1.856.184-.152.374-1.228.51-2.89.105-1.272.105-6.662 0-7.934-.149-1.81-.344-2.836-.549-2.876-.052-.01-.12.029-.151.088m-1.637.704c-.167.313-.32 1.505-.421 3.28-.078 1.387-.039 5.526.063 6.65.131 1.453.296 2.228.482 2.264.192.037.343-.644.491-2.205.147-1.545.146-6.319 0-7.875-.097-1.028-.216-1.77-.332-2.076-.063-.166-.204-.184-.283-.038m-1.484.705c-.117.292-.253 1.3-.33 2.449-.077 1.153-.077 4.641 0 5.795.111 1.654.306 2.715.487 2.657.233-.074.418-1.466.515-3.873.131-3.246-.145-7.119-.515-7.237-.036-.011-.107.083-.157.209"/></svg>