<svg width="22" height="22" fill="none" xmlns="http://www.w3.org/2000/svg"><path d="M10.346 2.094a8.926 8.926 0 0 0-7.357 4.963c-1.5 3.065-1.159 6.615.898 9.352 1.039 1.382 2.613 2.508 4.271 3.057a8.32 8.32 0 0 0 2.842.46c1.048 0 1.84-.129 2.842-.461a8.921 8.921 0 0 0 5.677-5.778 8.886 8.886 0 0 0-2.192-8.976 8.62 8.62 0 0 0-2.383-1.719 8.724 8.724 0 0 0-3.414-.902c-.604-.039-.593-.039-1.184.004m1.864 1.443a7.604 7.604 0 0 1 5.55 4.08c.744 1.478.972 3.212.642 4.886-.517 2.624-2.454 4.808-5.019 5.662a7.034 7.034 0 0 1-2.389.388c-3.715 0-6.819-2.646-7.462-6.361-.089-.516-.089-1.868 0-2.384C3.948 7.405 5.37 5.43 7.49 4.309c.736-.389 1.676-.693 2.428-.785.182-.023.372-.048.422-.057.21-.035 1.54.014 1.87.07m-1.581 3.461c-.308.196-.306.183-.318 1.846l-.01 1.455-1.456.012-1.457.011-.165.097a.66.66 0 0 0-.233.937.728.728 0 0 0 .252.246c.14.073.207.077 1.603.087l1.456.01.01 1.456c.01 1.396.014 1.463.087 1.603.109.209.36.357.602.357a.706.706 0 0 0 .602-.357c.073-.14.077-.207.087-1.603l.01-1.456 1.456-.01c1.396-.01 1.463-.014 1.603-.087.465-.243.472-.926.013-1.189l-.159-.091-1.457-.011-1.456-.012-.01-1.455c-.01-1.352-.016-1.466-.081-1.598-.169-.341-.644-.461-.979-.248" fill="currentColor" fill-rule="evenodd"/></svg>