<svg width="24" height="24" fill="none" xmlns="http://www.w3.org/2000/svg"><path d="M11.53 2.284a5.003 5.003 0 0 0-4.247 3.322c-.204.588-.262.951-.263 1.634 0 .665.056 1.029.245 1.6.465 1.401 1.595 2.568 2.995 3.093.622.233.939.285 1.74.285.638 0 .791-.013 1.109-.092 1.002-.25 1.779-.694 2.472-1.412.969-1.003 1.47-2.308 1.409-3.669a4.981 4.981 0 0 0-3.119-4.422 4.774 4.774 0 0 0-1.471-.342 9.017 9.017 0 0 0-.48-.035c-.011.003-.186.02-.39.038m1.268 2.081c.903.239 1.748 1.026 2.038 1.901a3.026 3.026 0 0 1-1.896 3.84c-.297.104-.365.112-.94.112s-.643-.008-.94-.112a3.027 3.027 0 0 1-1.896-3.84c.133-.402.38-.778.752-1.147.769-.763 1.813-1.036 2.882-.754m-4.505 8.454a4.043 4.043 0 0 0-2.806 2.021 4.81 4.81 0 0 0-.381.98c-.078.267-.082.406-.096 3.11l-.014 2.83H19v-2.684c0-2.521-.005-2.707-.08-3.074a4.085 4.085 0 0 0-.408-1.162 4.012 4.012 0 0 0-2.827-2.021c-.463-.081-6.945-.081-7.392 0m7.155 1.986c.498.106 1.063.534 1.307.991.228.429.244.578.244 2.354L17 19.76H7v-1.595c0-.917.017-1.686.041-1.809.133-.704.766-1.371 1.459-1.54.275-.067 6.637-.077 6.948-.011" fill-rule="evenodd" fill="#000"/></svg>